<?xml version="1.0" encoding="iso-8859-1"?>
<!-- Uploaded to: SVG Repo, www.svgrepo.com, Transformed by: SVG Repo Mixer Tools -->
<svg height="800px" width="800px" version="1.1" id="Layer_1" xmlns="http://www.w3.org/2000/svg" xmlns:xlink="http://www.w3.org/1999/xlink" 
	 viewBox="0 0 511.997 511.997" xml:space="preserve">
<path style="fill:#8CC63F;" d="M290.992,150.173h-69.055c-10.747,0-19.461-8.712-19.461-19.461v-4.27
	c0-10.747,8.712-19.461,19.461-19.461h69.055c10.747,0,19.461,8.712,19.461,19.461v4.27
	C310.453,141.461,301.739,150.173,290.992,150.173z"/>
<g>
	<path style="fill:#A67C52;" d="M256.464,106.983c27.973,0,50.649-31.268,50.649-69.839c0-29.743-13.484-24.482-32.483-20.516
		c-4.346-4.215-10.87-6.898-18.166-6.898c-7.296,0-13.82,2.682-18.166,6.898c-18.998-3.966-32.483-9.227-32.483,20.516
		C205.815,75.715,228.491,106.983,256.464,106.983z"/>
	<path style="fill:#A67C52;" d="M397.456,407.853V291.166c0-77.868-63.125-140.993-140.993-140.993l0,0
		c-77.868,0-140.993,63.125-140.993,140.993v116.688c0,12.542-7.142,23.99-18.405,29.506l-9.88,4.837
		c-11.265,5.516-18.405,16.964-18.405,29.506l0,0c0,18.146,14.709,32.855,32.855,32.855h309.658
		c18.145,0,32.855-14.709,32.855-32.855l0,0c0-12.542-7.142-23.99-18.405-29.506l-9.88-4.837
		C404.598,431.845,397.456,420.396,397.456,407.853z"/>
</g>
<path style="fill:#936841;" d="M110.186,471.705L110.186,471.705c0-12.542,7.142-23.99,18.405-29.506l9.88-4.837
	c11.265-5.516,18.405-16.964,18.405-29.506V291.166c0-70.834,52.238-129.46,120.29-139.475c-6.757-0.995-13.669-1.517-20.703-1.517
	l0,0c-77.868,0-140.993,63.125-140.993,140.993v116.688c0,12.542-7.142,23.99-18.405,29.506l-9.88,4.837
	c-11.265,5.516-18.405,16.964-18.405,29.506l0,0c0,18.145,14.709,32.855,32.855,32.855h41.405
	C124.895,504.56,110.186,489.85,110.186,471.705z"/>
<path style="fill:#7EAF31;" d="M323.245,306.016c-1.024-5.227-3.568-10.214-7.627-14.255c-10.825-10.774-28.334-10.734-39.109,0.092
	c-6.165,6.194-15.373,21.197-20.103,34.922c-4.795-13.702-14.073-28.663-20.267-34.828c-10.825-10.774-28.334-10.734-39.109,0.092
	c-10.774,10.825-10.733,28.334,0.092,39.109c6.194,6.165,21.197,15.373,34.922,20.103c-13.702,4.795-28.663,14.073-34.828,20.267
	c-10.774,10.825-10.733,28.334,0.092,39.109c10.825,10.774,28.334,10.733,39.109-0.092c6.165-6.194,15.373-21.197,20.103-34.922
	c4.795,13.702,14.073,28.663,20.267,34.828c10.825,10.774,28.334,10.733,39.109-0.092c10.774-10.825,10.733-28.334-0.092-39.109
	c-6.194-6.165-21.197-15.373-34.922-20.103c13.702-4.795,28.663-14.073,34.828-20.267"/>
<path d="M216.122,291.334c0.015,0,0.03,0,0.046,0c5.076,0,9.851,1.971,13.45,5.554c5.315,5.288,13.903,19.239,18.221,31.577
	c1.205,3.444,4.456,5.75,8.103,5.75c0.007,0,0.014,0,0.021,0c3.656-0.009,6.905-2.332,8.096-5.789
	c4.258-12.357,12.781-26.348,18.07-31.663c7.418-7.451,19.514-7.483,26.969-0.063c2.709,2.696,4.527,6.092,5.26,9.823
	c0.912,4.653,5.423,7.687,10.077,6.773c4.652-0.912,7.685-5.423,6.772-10.077c-1.393-7.104-4.849-13.566-9.994-18.688
	c-14.163-14.094-37.153-14.043-51.251,0.12c-4.538,4.56-9.643,11.994-14.066,20.144c-4.461-8.132-9.603-15.54-14.162-20.078
	c-6.841-6.809-15.915-10.555-25.562-10.555c-0.029,0-0.058,0-0.087,0c-9.681,0.023-18.772,3.814-25.6,10.674
	c-6.829,6.861-10.577,15.969-10.555,25.65c0.022,9.681,3.814,18.772,10.674,25.601c4.559,4.538,11.994,9.644,20.145,14.067
	c-8.131,4.462-15.539,9.602-20.078,14.162c-6.829,6.861-10.577,15.971-10.555,25.65s3.814,18.772,10.674,25.6
	c6.841,6.809,15.915,10.555,25.562,10.555c0.029,0,0.06,0,0.087,0c9.681-0.023,18.772-3.814,25.6-10.674
	c4.54-4.56,9.645-11.993,14.068-20.145c4.461,8.13,9.603,15.54,14.161,20.079c14.164,14.097,37.155,14.042,51.25-0.12
	c14.097-14.163,14.043-37.154-0.119-51.25c-4.559-4.539-11.994-9.644-20.145-14.067c8.132-4.462,15.54-9.603,20.078-14.162
	c3.345-3.361,3.332-8.797-0.027-12.142c-3.362-3.345-8.798-3.333-12.14,0.029c-5.288,5.314-19.24,13.902-31.579,18.22
	c-3.451,1.208-5.758,4.468-5.749,8.124c0.009,3.655,2.332,6.905,5.789,8.096c12.358,4.258,26.351,12.783,31.663,18.071
	c7.453,7.416,7.48,19.515,0.064,26.968c-3.594,3.61-8.377,5.604-13.472,5.617c-5.049-0.024-9.888-1.96-13.497-5.553
	c-5.314-5.29-13.903-19.241-18.22-31.578c-1.205-3.444-4.456-5.75-8.103-5.75c-0.007,0-0.014,0-0.021,0
	c-3.656,0.009-6.905,2.332-8.096,5.789c-4.259,12.358-12.783,26.349-18.071,31.663c-3.594,3.61-8.377,5.604-13.472,5.617
	c-0.016,0-0.03,0-0.046,0c-5.077,0-9.851-1.971-13.45-5.554c-3.61-3.593-5.604-8.377-5.617-13.471
	c-0.013-5.094,1.961-9.887,5.554-13.497c5.288-5.314,19.241-13.903,31.578-18.22c3.45-1.208,5.758-4.468,5.749-8.124
	c-0.009-3.656-2.332-6.905-5.788-8.096c-12.359-4.259-26.351-12.783-31.663-18.072c-3.61-3.593-5.604-8.377-5.617-13.471
	c-0.013-5.094,1.961-9.887,5.555-13.497C206.244,293.341,211.027,291.345,216.122,291.334z"/>
<path d="M429.051,433.343l-9.879-4.837c-8.26-4.044-13.597-12.599-13.597-21.797V290.021c0-63.674-39.999-118.175-96.185-139.719
	c5.636-5.133,9.18-12.527,9.18-20.734v-4.27c0-14.63-11.263-26.673-25.573-27.93c2.013-2.135,3.946-4.439,5.763-6.945
	c10.62-14.645,16.471-33.973,16.471-54.424c0-14.192-2.809-22.784-9.107-27.856c-8.213-6.613-18.669-4.336-29.74-1.92
	C270.675,2.229,263.481,0,255.999,0c-7.482,0-14.676,2.229-20.387,6.224c-11.074-2.418-21.528-4.693-29.74,1.92
	c-6.298,5.072-9.107,13.664-9.107,27.856c0,20.451,5.848,39.779,16.47,54.424c1.818,2.507,3.75,4.81,5.763,6.945
	c-14.31,1.257-25.572,13.3-25.572,27.93v4.27c0,8.206,3.543,15.601,9.18,20.734c-56.187,21.544-96.184,76.043-96.184,139.719v47.802
	c0,4.741,3.843,8.585,8.585,8.585c4.742,0,8.585-3.844,8.585-8.585V290.02c0-63.382,44.77-116.495,104.343-129.404
	c-5.222,9.146-9.165,21.054-11.315,35.035c-0.72,4.686,2.495,9.069,7.182,9.789c0.442,0.068,0.881,0.101,1.314,0.101
	c4.165,0,7.822-3.038,8.474-7.282c3.07-19.972,12.282-40.629,22.392-40.646c0.006,0,0.01,0,0.015,0c0.002,0,0.005,0,0.007,0
	c10.114,0.014,19.334,20.673,22.403,40.646c0.721,4.687,5.098,7.903,9.79,7.181c4.686-0.72,7.901-5.103,7.181-9.79
	c-2.149-13.98-6.093-25.888-11.317-35.034c59.574,12.909,104.343,66.022,104.343,129.404v169.705c0,4.741,3.843,8.585,8.585,8.585
	c4.742,0,8.585-3.844,8.585-8.585v-19.472c1.896,1.379,3.906,2.625,6.045,3.672l9.879,4.837c8.26,4.044,13.597,12.6,13.597,21.797
	c0,13.382-10.887,24.27-24.268,24.27H101.169c-13.381,0-24.27-10.887-24.27-24.27c0-9.196,5.337-17.752,13.597-21.797l9.881-4.837
	c2.139-1.048,4.148-2.293,6.044-3.672v19.471c0,4.741,3.843,8.585,8.585,8.585c4.742,0,8.585-3.844,8.585-8.585v-93.286
	c0-4.741-3.843-8.585-8.585-8.585c-4.742,0-8.585,3.844-8.585,8.585v40.269c0,9.196-5.337,17.752-13.595,21.797l-9.881,4.837
	c-14.102,6.906-23.215,21.514-23.215,37.217c0,22.85,18.59,41.44,41.44,41.44h309.659c22.849,0,41.439-18.59,41.439-41.44
	C452.266,454.857,443.154,440.249,429.051,433.343z M216.641,21.517c0.498-0.401,1.445-0.563,2.675-0.563
	c3.262,0,8.514,1.146,12.656,2.05c1.337,0.292,2.707,0.591,4.107,0.883c2.786,0.581,5.684-0.258,7.731-2.241
	c2.933-2.843,7.375-4.475,12.189-4.475c4.813,0,9.257,1.631,12.189,4.475c2.046,1.984,4.944,2.822,7.731,2.241
	c1.4-0.292,2.77-0.591,4.107-0.883c5.704-1.245,13.515-2.946,15.331-1.487c0.277,0.223,2.706,2.525,2.706,14.483
	c0,20.229-6.773,38.191-17.185,49.352c2.255-7.705,3.958-16.684,5.003-26.534c0.501-4.715-2.915-8.943-7.63-9.444
	c-4.723-0.501-8.942,2.917-9.444,7.63C265.927,84.113,258.72,95.531,256,97.15c-2.721-1.616-9.931-13.03-12.809-40.146
	c-0.5-4.715-4.712-8.136-9.444-7.63c-4.715,0.5-8.132,4.729-7.63,9.444c1.046,9.85,2.748,18.829,5.003,26.535
	c-10.413-11.161-17.186-29.124-17.186-49.353C213.934,24.041,216.364,21.74,216.641,21.517z M210.595,125.298
	c0-5.997,4.879-10.874,10.874-10.874h69.055c5.997,0,10.876,4.879,10.876,10.874v4.27c0,5.997-4.879,10.874-10.876,10.874H221.47
	c-5.996,0-10.874-4.879-10.874-10.874V125.298z"/>
</svg>